<?xml version="1.0" encoding="UTF-8"?>
<svg id="Capa_1" data-name="Capa 1" xmlns="http://www.w3.org/2000/svg" viewBox="0 0 419.53 595.28">
  <defs>
    <style>
      .cls-1 {
        letter-spacing: .19em;
      }

      .cls-1, .cls-2, .cls-3, .cls-4, .cls-5 {
        isolation: isolate;
      }

      .cls-1, .cls-6, .cls-3, .cls-4, .cls-5 {
        fill: #f5f2eb;
      }

      .cls-1, .cls-3 {
        font-size: 8px;
      }

      .cls-1, .cls-4 {
        font-family: Lato-Black, Lato;
        font-weight: 800;
      }

      .cls-7 {
        fill: #a92a20;
      }

      .cls-6 {
        font-family: EBGaramond-Italic, 'EB Garamond';
        font-size: 13px;
        font-style: italic;
      }

      .cls-8 {
        letter-spacing: 0em;
      }

      .cls-3 {
        font-family: Lato-Regular, Lato;
      }

      .cls-4 {
        font-size: 20px;
      }

      .cls-9 {
        letter-spacing: -.02em;
      }

      .cls-10 {
        letter-spacing: -.02em;
      }

      .cls-11 {
        letter-spacing: -.02em;
      }

      .cls-12 {
        letter-spacing: -.01em;
      }

      .cls-13 {
        letter-spacing: -.02em;
      }

      .cls-14 {
        letter-spacing: .08em;
      }

      .cls-15 {
        letter-spacing: .08em;
      }

      .cls-16 {
        letter-spacing: .08em;
      }

      .cls-17 {
        letter-spacing: .02em;
      }

      .cls-18 {
        letter-spacing: .02em;
      }

      .cls-19 {
        letter-spacing: .02em;
      }

      .cls-20 {
        letter-spacing: .02em;
      }

      .cls-5 {
        font-family: EBGaramond-Regular, 'EB Garamond';
        font-size: 156.71px;
      }

      .cls-21 {
        letter-spacing: .04em;
      }

      .cls-22 {
        letter-spacing: .03em;
      }

      .cls-23 {
        letter-spacing: .03em;
      }

      .cls-24 {
        letter-spacing: .03em;
      }

      .cls-25 {
        letter-spacing: 0em;
      }
    </style>
  </defs>
  <rect class="cls-7" y="0" width="419.54" height="595.3"/>
  <g class="cls-2">
    <text class="cls-5" transform="translate(40.56 204.26)"><tspan x="0" y="0">I</tspan></text>
  </g>
  <g class="cls-2">
    <text class="cls-4" transform="translate(43.69 290.15)"><tspan class="cls-19" x="0" y="0">O</tspan><tspan class="cls-24" x="16.76" y="0">rí</tspan><tspan class="cls-18" x="30.98" y="0">g</tspan><tspan class="cls-23" x="42.11" y="0">enes</tspan><tspan class="cls-25" x="86.46" y="0" xml:space="preserve"> y</tspan><tspan class="cls-24" x="102.08" y="0" xml:space="preserve"> sust</tspan><tspan class="cls-22" x="146.7" y="0">r</tspan><tspan class="cls-20" x="154.85" y="0">a</tspan><tspan class="cls-22" x="165.66" y="0">t</tspan><tspan class="cls-24" x="173.87" y="0">os p</tspan><tspan class="cls-17" x="213" y="0">r</tspan><tspan class="cls-23" x="221.07" y="0">ehispáni</tspan><tspan class="cls-17" x="301.05" y="0">c</tspan><tspan class="cls-23" x="311.22" y="0">os</tspan></text>
  </g>
  <g class="cls-2">
    <text class="cls-1" transform="translate(43.54 320.57)"><tspan x="0" y="0">PRE-1764 · 2 PIEZAS</tspan></text>
  </g>
  <g class="cls-2">
    <text class="cls-3" transform="translate(38.69 575.45)"><tspan x="0" y="0">6</tspan></text>
  </g>
  <text class="cls-6" transform="translate(44.06 457.09)"><tspan x="0" y="0">&quot;Los</tspan><tspan class="cls-15" x="20.4" y="0"> </tspan><tspan x="24.04" y="0">sistemas</tspan><tspan class="cls-14" x="63.49" y="0"> </tspan><tspan x="67.13" y="0">prev</tspan><tspan class="cls-11" x="87.52" y="0">i</tspan><tspan class="cls-8" x="91.09" y="0">os</tspan><tspan class="cls-15" x="99.61" y="0"> </tspan><tspan x="103.25" y="0">a</tspan><tspan class="cls-14" x="109.64" y="0"> </tspan><tspan class="cls-8" x="113.27" y="0">la</tspan><tspan class="cls-15" x="123.38" y="0"> </tspan><tspan class="cls-12" x="127.01" y="0">i</tspan><tspan x="130.64" y="0">mprenta.</tspan><tspan class="cls-14" x="175.79" y="0"> </tspan><tspan x="179.43" y="0">Cód</tspan><tspan class="cls-11" x="199.28" y="0">i</tspan><tspan class="cls-12" x="202.84" y="0">c</tspan><tspan x="206.71" y="0">es,</tspan><tspan class="cls-15" x="217.53" y="0"> </tspan><tspan class="cls-9" x="221.17" y="0">g</tspan><tspan x="226.24" y="0">lifos,</tspan><tspan class="cls-14" x="249.27" y="0"> </tspan><tspan x="252.91" y="0">qu</tspan><tspan class="cls-13" x="265.68" y="0">i</tspan><tspan x="269.3" y="0">pus</tspan><tspan class="cls-15" x="285.22" y="0"> </tspan><tspan x="288.86" y="0">y</tspan><tspan class="cls-16" x="294.12" y="0"> </tspan><tspan x="297.76" y="0">t</tspan><tspan class="cls-9" x="301.55" y="0">e</tspan><tspan x="305.66" y="0">l</tspan><tspan class="cls-11" x="309.38" y="0">a</tspan><tspan x="315.5" y="0">res: </tspan><tspan x="0" y="18">dispositivos</tspan><tspan class="cls-21" x="53.65" y="18"> </tspan><tspan x="56.8" y="18">de</tspan><tspan class="cls-21" x="67.94" y="18"> </tspan><tspan class="cls-13" x="71.08" y="18">i</tspan><tspan x="74.71" y="18">nformac</tspan><tspan class="cls-10" x="116.31" y="18">i</tspan><tspan x="119.87" y="18">ón</tspan><tspan class="cls-21" x="131.66" y="18"> </tspan><tspan x="134.81" y="18">y</tspan><tspan class="cls-21" x="140.07" y="18"> </tspan><tspan x="143.22" y="18">memoria</tspan><tspan class="cls-21" x="188.24" y="18"> </tspan><tspan x="191.38" y="18">de</tspan><tspan class="cls-21" x="202.52" y="18"> </tspan><tspan x="205.67" y="18">las</tspan><tspan class="cls-21" x="219.36" y="18"> </tspan><tspan x="222.5" y="18">soc</tspan><tspan class="cls-11" x="235.1" y="18">i</tspan><tspan x="238.66" y="18">edades</tspan><tspan class="cls-21" x="270.91" y="18"> </tspan><tspan x="274.06" y="18">orig</tspan><tspan class="cls-12" x="293.14" y="18">i</tspan><tspan x="296.77" y="18">n</tspan><tspan class="cls-11" x="303.62" y="18">a</tspan><tspan x="309.74" y="18">rias, </tspan><tspan x="0" y="36">p</tspan><tspan class="cls-11" x="5.71" y="36">a</tspan><tspan x="11.83" y="36">rci</tspan><tspan class="cls-10" x="24.65" y="36">a</tspan><tspan x="30.77" y="36">lmente destru</tspan><tspan class="cls-10" x="96.93" y="36">i</tspan><tspan x="100.49" y="36">dos por la Conquista.&quot;</tspan></text>
</svg>