<?xml version="1.0" encoding="UTF-8" standalone="no"?>
<!-- Created with Inkscape (http://www.inkscape.org/) -->

<svg
   xmlns:dc="http://purl.org/dc/elements/1.1/"
   xmlns:cc="http://creativecommons.org/ns#"
   xmlns:rdf="http://www.w3.org/1999/02/22-rdf-syntax-ns#"
   xmlns:svg="http://www.w3.org/2000/svg"
   xmlns="http://www.w3.org/2000/svg"
   xmlns:sodipodi="http://sodipodi.sourceforge.net/DTD/sodipodi-0.dtd"
   xmlns:inkscape="http://www.inkscape.org/namespaces/inkscape"
   id="svg2985"
   version="1.1"
   inkscape:version="0.48.2 r9819"
   width="134"
   height="134"
   sodipodi:docname="fabricaciones militares.jpg">
  <metadata
     id="metadata2991">
    <rdf:RDF>
      <cc:Work
         rdf:about="">
        <dc:format>image/svg+xml</dc:format>
        <dc:type
           rdf:resource="http://purl.org/dc/dcmitype/StillImage" />
        <dc:title></dc:title>
      </cc:Work>
    </rdf:RDF>
  </metadata>
  <defs
     id="defs2989" />
  <sodipodi:namedview
     pagecolor="#ffffff"
     bordercolor="#666666"
     borderopacity="1"
     objecttolerance="10"
     gridtolerance="10"
     guidetolerance="10"
     inkscape:pageopacity="0"
     inkscape:pageshadow="2"
     inkscape:window-width="800"
     inkscape:window-height="551"
     id="namedview2987"
     showgrid="false"
     showguides="true"
     inkscape:guide-bbox="true"
     fit-margin-top="0"
     fit-margin-left="0"
     fit-margin-right="0"
     fit-margin-bottom="0"
     inkscape:zoom="2.2416107"
     inkscape:cx="57.978273"
     inkscape:cy="75.560182"
     inkscape:window-x="-4"
     inkscape:window-y="-4"
     inkscape:window-maximized="1"
     inkscape:current-layer="svg2985" />
  <g
     transform="matrix(0.3622478,0,0,0.36224777,-7.2090514,-241.24881)"
     id="g3000">
    <path
       transform="matrix(1.2143697,0,0,1.2042888,543.09477,710.28281)"
       d="m -131.87103,115.78336 c 0,82.42555 -66.05981,149.24466 -147.54871,149.24466 -81.4889,0 -147.5487,-66.81911 -147.5487,-149.24466 0,-82.425546 66.0598,-149.244656 147.5487,-149.244656 81.4889,0 147.54871,66.81911 147.54871,149.244656 z"
       sodipodi:ry="149.24466"
       sodipodi:rx="147.54871"
       sodipodi:cy="115.78336"
       sodipodi:cx="-279.41974"
       id="path3022"
       style="fill:#ffffff;fill-opacity:1;stroke:none"
       sodipodi:type="arc" />
    <path
       id="path2189"
       d="m 204.85626,1022.0387 c -94.49862,0 -171.104168,-76.60558 -171.104168,-171.10421 0,-94.4995 76.605548,-171.10357 171.104168,-171.10357 94.4995,0 171.10356,76.60407 171.10356,171.10357 0,94.49863 -76.60406,171.10421 -171.10356,171.10421 m 0,-356.06136 c -102.14835,0 -184.955376,82.80999 -184.955376,184.95715 0,102.14834 82.807026,184.95541 184.955376,184.95541 102.15012,0 184.95715,-82.80707 184.95715,-184.95541 0,-102.14716 -82.80703,-184.95715 -184.95715,-184.95715"
       style="fill:#85bdde;fill-opacity:1;fill-rule:nonzero;stroke:none"
       inkscape:connector-curvature="0" />
    <path
       id="path2191"
       d="m 204.85626,991.07695 c -77.39909,0 -140.142456,-62.74486 -140.142456,-140.14246 0,-77.39968 62.743366,-140.14216 140.142456,-140.14216 77.39997,0 140.14215,62.74248 140.14215,140.14216 0,77.3976 -62.74218,140.14246 -140.14215,140.14246 m 0,-294.95102 c -85.49765,0 -154.808562,69.30943 -154.808562,154.80856 0,85.49795 69.310912,154.80851 154.808562,154.80851 85.49913,0 154.80855,-69.31056 154.80855,-154.80851 0,-85.49913 -69.30942,-154.80856 -154.80855,-154.80856"
       style="fill:#85bdde;fill-opacity:1;fill-rule:nonzero;stroke:none"
       inkscape:connector-curvature="0" />
  </g>
  <g
     id="g3029"
     transform="translate(-7.2728061,-7.1380263)">
    <path
       sodipodi:nodetypes="ccccccccccc"
       inkscape:connector-curvature="0"
       id="path2995"
       d="m 34.573353,52.919681 0.125689,44.031755 11.356051,12.302384 -0.105991,-35.422982 27.234333,0 -0.244812,-10.037425 -26.989521,-0.223054 0.105991,-9.519557 c 6.716754,-8.599768 13.373481,-10.935456 26.88353,-13.063941 0.210297,-3.995647 -0.210297,-6.876025 0,-10.871672 -17.139224,2.628716 -27.534963,6.611605 -38.36527,22.804492 z"
       style="fill:#000000;stroke:#000000;stroke-width:1px;stroke-linecap:butt;stroke-linejoin:miter;stroke-opacity:1" />
    <path
       sodipodi:nodetypes="cccccccccccc"
       inkscape:connector-curvature="0"
       id="path2997"
       d="m 77.622755,29.853864 0.01519,88.324836 c 4.262255,0.66388 7.409241,0.43554 11.671496,-1.57723 l 0.592621,-51.825509 7.070471,16.164277 9.332717,-14.363994 c 5.61114,7.254594 0.99736,20.220237 -5.7163,31.229138 l 6.40131,8.293988 C 123.44138,85.490241 124.12948,62.988436 104.78214,41.209915 L 97.472764,52.457721 89.048119,33.008323 z"
       style="fill:#000000;stroke:#000000;stroke-width:1px;stroke-linecap:butt;stroke-linejoin:miter;stroke-opacity:1" />
  </g>
</svg>
